<?xml version="1.0" standalone="no"?>
<!DOCTYPE svg PUBLIC "-//W3C//DTD SVG 20010904//EN"
 "http://www.w3.org/TR/2001/REC-SVG-20010904/DTD/svg10.dtd">
<svg version="1.0" xmlns="http://www.w3.org/2000/svg"
 width="307.000000pt" height="307.000000pt" viewBox="0 0 307.000000 307.000000"
 preserveAspectRatio="xMidYMid meet">
<metadata>
Created by potrace 1.14, written by Peter Selinger 2001-2017
</metadata>
<g transform="translate(0.000000,307.000000) scale(0.100000,-0.100000)"
fill="#000000" stroke="none">
<path d="M535 3056 c-173 -39 -319 -137 -417 -280 -36 -52 -85 -154 -93 -196
-2 -8 -8 -35 -14 -60 -7 -31 -10 -353 -8 -1010 l2 -965 29 -84 c16 -46 40 -99
53 -118 13 -18 23 -38 23 -42 0 -4 27 -38 60 -74 78 -85 180 -152 289 -191
l86 -31 985 0 c924 0 989 1 1045 18 239 73 410 248 475 487 20 73 20 96 18
1045 l-3 970 -28 81 c-68 201 -230 363 -431 432 l-81 27 -965 2 c-771 1 -977
-1 -1025 -11z"/>
</g>
</svg>
